<mxfile host="app.diagrams.net" agent="Mozilla/5.0 (Windows NT 10.0; Win64; x64) AppleWebKit/537.36 (KHTML, like Gecko) Chrome/138.0.0.0 Safari/537.36" version="28.1.2">
  <diagram name="Page-1" id="pAUfyJyuITB3TChj9vww">
    <mxGraphModel dx="3465" dy="3635" grid="1" gridSize="10" guides="1" tooltips="1" connect="1" arrows="1" fold="1" page="1" pageScale="1" pageWidth="850" pageHeight="1100" math="0" shadow="0">
      <root>
        <mxCell id="0" />
        <mxCell id="1" parent="0" />
        <mxCell id="msqtqMX0rnwftuYcq2b5-58" style="edgeStyle=orthogonalEdgeStyle;rounded=0;orthogonalLoop=1;jettySize=auto;html=1;exitX=0.5;exitY=1;exitDx=0;exitDy=0;" edge="1" parent="1" source="msqtqMX0rnwftuYcq2b5-41">
          <mxGeometry relative="1" as="geometry">
            <mxPoint x="-10" y="-1940" as="targetPoint" />
            <Array as="points">
              <mxPoint x="-10" y="-2050" />
            </Array>
          </mxGeometry>
        </mxCell>
        <mxCell id="msqtqMX0rnwftuYcq2b5-41" value="start" style="ellipse;whiteSpace=wrap;html=1;fontSize=32;fillColor=#6d8764;fontColor=#ffffff;strokeColor=#3A5431;" vertex="1" parent="1">
          <mxGeometry x="-150" y="-2130" width="250" height="80" as="geometry" />
        </mxCell>
        <mxCell id="msqtqMX0rnwftuYcq2b5-52" style="edgeStyle=orthogonalEdgeStyle;rounded=0;orthogonalLoop=1;jettySize=auto;html=1;exitX=0.5;exitY=1;exitDx=0;exitDy=0;exitPerimeter=0;entryX=0.5;entryY=0;entryDx=0;entryDy=0;" edge="1" parent="1" source="msqtqMX0rnwftuYcq2b5-43" target="msqtqMX0rnwftuYcq2b5-44">
          <mxGeometry relative="1" as="geometry" />
        </mxCell>
        <mxCell id="msqtqMX0rnwftuYcq2b5-43" value="New user" style="strokeWidth=2;html=1;shape=mxgraph.flowchart.decision;whiteSpace=wrap;fontSize=25;fillColor=#fa6800;fontColor=#FFFFFF;strokeColor=#C73500;" vertex="1" parent="1">
          <mxGeometry x="-102.5" y="-1930" width="190" height="190" as="geometry" />
        </mxCell>
        <mxCell id="msqtqMX0rnwftuYcq2b5-44" value="Recognise the face" style="shape=parallelogram;html=1;strokeWidth=2;perimeter=parallelogramPerimeter;whiteSpace=wrap;rounded=1;arcSize=12;size=0.23;fontSize=23;fillColor=#647687;fontColor=#ffffff;strokeColor=#314354;" vertex="1" parent="1">
          <mxGeometry x="-170" y="-1600" width="325" height="120" as="geometry" />
        </mxCell>
        <mxCell id="msqtqMX0rnwftuYcq2b5-59" style="edgeStyle=orthogonalEdgeStyle;rounded=0;orthogonalLoop=1;jettySize=auto;html=1;exitX=1;exitY=0.5;exitDx=0;exitDy=0;exitPerimeter=0;entryX=0.5;entryY=0;entryDx=0;entryDy=0;" edge="1" parent="1" source="msqtqMX0rnwftuYcq2b5-46" target="msqtqMX0rnwftuYcq2b5-50">
          <mxGeometry relative="1" as="geometry">
            <mxPoint x="440" y="-2040" as="targetPoint" />
            <Array as="points">
              <mxPoint x="790" y="-1215" />
              <mxPoint x="790" y="-2040" />
              <mxPoint x="525" y="-2040" />
            </Array>
          </mxGeometry>
        </mxCell>
        <mxCell id="msqtqMX0rnwftuYcq2b5-46" value="face rocognise" style="strokeWidth=2;html=1;shape=mxgraph.flowchart.decision;whiteSpace=wrap;fillColor=#b1ddf0;strokeColor=#10739e;fontSize=21;fontColor=#FFFFFF;" vertex="1" parent="1">
          <mxGeometry x="-132.5" y="-1320" width="250" height="210" as="geometry" />
        </mxCell>
        <mxCell id="msqtqMX0rnwftuYcq2b5-47" value="stored in CSV&amp;nbsp; with recognisation file with regestration number and date" style="shape=parallelogram;html=1;strokeWidth=2;perimeter=parallelogramPerimeter;whiteSpace=wrap;rounded=1;arcSize=12;size=0.23;fontSize=23;fillColor=#647687;fontColor=#ffffff;strokeColor=#314354;" vertex="1" parent="1">
          <mxGeometry x="-425" y="-940" width="960" height="190" as="geometry" />
        </mxCell>
        <mxCell id="msqtqMX0rnwftuYcq2b5-48" value="End" style="strokeWidth=2;html=1;shape=mxgraph.flowchart.start_1;whiteSpace=wrap;fontSize=32;fillColor=#6a00ff;fontColor=#ffffff;strokeColor=#3700CC;" vertex="1" parent="1">
          <mxGeometry x="-185" y="-550" width="355" height="160" as="geometry" />
        </mxCell>
        <mxCell id="msqtqMX0rnwftuYcq2b5-50" value="Give your photograph" style="rounded=1;whiteSpace=wrap;html=1;fillColor=#60a917;fontColor=#ffffff;strokeColor=#2D7600;fontSize=26;" vertex="1" parent="1">
          <mxGeometry x="380" y="-1880" width="290" height="90" as="geometry" />
        </mxCell>
        <mxCell id="msqtqMX0rnwftuYcq2b5-61" style="edgeStyle=orthogonalEdgeStyle;rounded=0;orthogonalLoop=1;jettySize=auto;html=1;exitX=0;exitY=0.5;exitDx=0;exitDy=0;" edge="1" parent="1" source="msqtqMX0rnwftuYcq2b5-51" target="msqtqMX0rnwftuYcq2b5-44">
          <mxGeometry relative="1" as="geometry" />
        </mxCell>
        <mxCell id="msqtqMX0rnwftuYcq2b5-51" value="store the face data in folder on your name" style="rounded=1;whiteSpace=wrap;html=1;fillColor=#60a917;fontColor=#ffffff;strokeColor=#2D7600;fontSize=26;" vertex="1" parent="1">
          <mxGeometry x="390" y="-1585" width="290" height="90" as="geometry" />
        </mxCell>
        <mxCell id="msqtqMX0rnwftuYcq2b5-53" style="edgeStyle=orthogonalEdgeStyle;rounded=0;orthogonalLoop=1;jettySize=auto;html=1;exitX=0.5;exitY=1;exitDx=0;exitDy=0;entryX=0.5;entryY=0;entryDx=0;entryDy=0;entryPerimeter=0;" edge="1" parent="1" source="msqtqMX0rnwftuYcq2b5-44" target="msqtqMX0rnwftuYcq2b5-46">
          <mxGeometry relative="1" as="geometry" />
        </mxCell>
        <mxCell id="msqtqMX0rnwftuYcq2b5-54" style="edgeStyle=orthogonalEdgeStyle;rounded=0;orthogonalLoop=1;jettySize=auto;html=1;exitX=0.5;exitY=1;exitDx=0;exitDy=0;exitPerimeter=0;entryX=0.435;entryY=0.006;entryDx=0;entryDy=0;entryPerimeter=0;" edge="1" parent="1" source="msqtqMX0rnwftuYcq2b5-46" target="msqtqMX0rnwftuYcq2b5-47">
          <mxGeometry relative="1" as="geometry" />
        </mxCell>
        <mxCell id="msqtqMX0rnwftuYcq2b5-55" value="" style="endArrow=classic;html=1;rounded=0;exitX=0.436;exitY=1;exitDx=0;exitDy=0;exitPerimeter=0;entryX=0.5;entryY=0;entryDx=0;entryDy=0;entryPerimeter=0;" edge="1" parent="1" source="msqtqMX0rnwftuYcq2b5-47" target="msqtqMX0rnwftuYcq2b5-48">
          <mxGeometry width="50" height="50" relative="1" as="geometry">
            <mxPoint x="-40" y="-740" as="sourcePoint" />
            <mxPoint x="-40" y="-560" as="targetPoint" />
          </mxGeometry>
        </mxCell>
        <mxCell id="msqtqMX0rnwftuYcq2b5-56" style="edgeStyle=orthogonalEdgeStyle;rounded=0;orthogonalLoop=1;jettySize=auto;html=1;exitX=1;exitY=0.5;exitDx=0;exitDy=0;exitPerimeter=0;entryX=0.034;entryY=0.5;entryDx=0;entryDy=0;entryPerimeter=0;" edge="1" parent="1" source="msqtqMX0rnwftuYcq2b5-43" target="msqtqMX0rnwftuYcq2b5-50">
          <mxGeometry relative="1" as="geometry" />
        </mxCell>
        <mxCell id="msqtqMX0rnwftuYcq2b5-60" value="" style="endArrow=none;html=1;rounded=0;entryX=0.5;entryY=1;entryDx=0;entryDy=0;exitX=0.466;exitY=0;exitDx=0;exitDy=0;exitPerimeter=0;" edge="1" parent="1" source="msqtqMX0rnwftuYcq2b5-51" target="msqtqMX0rnwftuYcq2b5-50">
          <mxGeometry width="50" height="50" relative="1" as="geometry">
            <mxPoint x="410" y="-1680" as="sourcePoint" />
            <mxPoint x="460" y="-1730" as="targetPoint" />
          </mxGeometry>
        </mxCell>
        <mxCell id="msqtqMX0rnwftuYcq2b5-63" value="Yes" style="text;html=1;align=center;verticalAlign=middle;resizable=0;points=[];autosize=1;strokeColor=none;fillColor=none;fontSize=32;" vertex="1" parent="1">
          <mxGeometry x="190" y="-1882" width="80" height="50" as="geometry" />
        </mxCell>
        <mxCell id="msqtqMX0rnwftuYcq2b5-64" value="No" style="text;html=1;align=center;verticalAlign=middle;resizable=0;points=[];autosize=1;strokeColor=none;fillColor=none;fontSize=26;" vertex="1" parent="1">
          <mxGeometry x="420" y="-1257" width="60" height="40" as="geometry" />
        </mxCell>
        <mxCell id="msqtqMX0rnwftuYcq2b5-65" value="Yes" style="text;html=1;align=center;verticalAlign=middle;resizable=0;points=[];autosize=1;strokeColor=none;fillColor=none;fontSize=34;" vertex="1" parent="1">
          <mxGeometry x="-90" y="-1040" width="80" height="50" as="geometry" />
        </mxCell>
        <mxCell id="msqtqMX0rnwftuYcq2b5-66" value="No" style="text;html=1;align=center;verticalAlign=middle;resizable=0;points=[];autosize=1;strokeColor=none;fillColor=none;fontSize=30;" vertex="1" parent="1">
          <mxGeometry x="-80" y="-1700" width="60" height="50" as="geometry" />
        </mxCell>
      </root>
    </mxGraphModel>
  </diagram>
</mxfile>
